<svg id="hero-icon-2" viewBox="0 0 153 47" fill="none" xmlns="http://www.w3.org/2000/svg">
<path d="M40.8109 23.1747C41.063 23.3139 41.063 23.6861 40.8109 23.8253L2.527 44.9529C2.30225 45.077 2 44.9223 2 44.6277L2 2.37233C2 2.07774 2.30224 1.92303 2.527 2.04707L40.8109 23.1747Z" stroke="#F26B34" stroke-opacity="0.2" stroke-width="4"/>
<path d="M62.8109 23.1747C63.063 23.3139 63.063 23.6861 62.8109 23.8253L24.527 44.9529C24.3022 45.077 24 44.9223 24 44.6277L24 2.37233C24 2.07774 24.3022 1.92303 24.527 2.04707L62.8109 23.1747Z" stroke="#F26B34" stroke-opacity="0.2" stroke-width="4"/>
<path d="M84.8109 23.1747C85.063 23.3139 85.063 23.6861 84.8109 23.8253L46.527 44.9529C46.3022 45.077 46 44.9223 46 44.6277L46 2.37233C46 2.07774 46.3022 1.92303 46.527 2.04707L84.8109 23.1747Z" stroke="#F26B34" stroke-opacity="0.2" stroke-width="4"/>
<path d="M106.811 23.1747C107.063 23.3139 107.063 23.6861 106.811 23.8253L68.527 44.9529C68.3022 45.077 68 44.9223 68 44.6277L68 2.37233C68 2.07774 68.3022 1.92303 68.527 2.04707L106.811 23.1747Z" stroke="#F26B34" stroke-opacity="0.2" stroke-width="4"/>
<path d="M128.811 23.1747C129.063 23.3139 129.063 23.6861 128.811 23.8253L90.527 44.9529C90.3022 45.077 90 44.9223 90 44.6277L90 2.37233C90 2.07774 90.3022 1.92303 90.527 2.04707L128.811 23.1747Z" stroke="#F26B34" stroke-opacity="0.2" stroke-width="4"/>
<path d="M150.811 23.1747C151.063 23.3139 151.063 23.6861 150.811 23.8253L112.527 44.9529C112.302 45.077 112 44.9223 112 44.6277L112 2.37233C112 2.07774 112.302 1.92303 112.527 2.04707L150.811 23.1747Z" stroke="#F26B34" stroke-opacity="0.2" stroke-width="4"/>
</svg>
