<svg id="hero-icon-1" viewBox="0 0 192 252" fill="none" xmlns="http://www.w3.org/2000/svg">
<circle cx="28" cy="4" r="4" fill="#EFEEEE"/>
<circle cx="44" cy="4" r="4" fill="#EFEEEE"/>
<circle cx="60" cy="4" r="4" fill="#EFEEEE"/>
<circle cx="76" cy="4" r="4" fill="#EFEEEE"/>
<circle cx="92" cy="4" r="4" fill="#EFEEEE"/>
<circle cx="108" cy="4" r="4" fill="#EFEEEE"/>
<circle cx="124" cy="4" r="4" fill="#EFEEEE"/>
<circle cx="140" cy="4" r="4" fill="#EFEEEE"/>
<circle cx="156" cy="4" r="4" fill="#EFEEEE"/>
<circle cx="172" cy="4" r="4" fill="#EFEEEE"/>
<circle cx="188" cy="4" r="4" fill="#EFEEEE"/>
<circle cx="28" cy="20" r="4" fill="#EFEEEE"/>
<circle cx="44" cy="20" r="4" fill="#EFEEEE"/>
<circle cx="60" cy="20" r="4" fill="#EFEEEE"/>
<circle cx="76" cy="20" r="4" fill="#EFEEEE"/>
<circle cx="92" cy="20" r="4" fill="#EFEEEE"/>
<circle cx="108" cy="20" r="4" fill="#EFEEEE"/>
<circle cx="124" cy="20" r="4" fill="#EFEEEE"/>
<circle cx="140" cy="20" r="4" fill="#EFEEEE"/>
<circle cx="156" cy="20" r="4" fill="#EFEEEE"/>
<circle cx="172" cy="20" r="4" fill="#EFEEEE"/>
<circle cx="188" cy="20" r="4" fill="#EFEEEE"/>
<circle cx="28" cy="36" r="4" fill="#EFEEEE"/>
<circle cx="44" cy="36" r="4" fill="#EFEEEE"/>
<circle cx="60" cy="36" r="4" fill="#EFEEEE"/>
<circle cx="76" cy="36" r="4" fill="#EFEEEE"/>
<circle cx="92" cy="36" r="4" fill="#EFEEEE"/>
<circle cx="108" cy="36" r="4" fill="#EFEEEE"/>
<circle cx="124" cy="36" r="4" fill="#EFEEEE"/>
<circle cx="140" cy="36" r="4" fill="#EFEEEE"/>
<circle cx="156" cy="36" r="4" fill="#EFEEEE"/>
<circle cx="172" cy="36" r="4" fill="#EFEEEE"/>
<circle cx="188" cy="36" r="4" fill="#EFEEEE"/>
<circle cx="28" cy="52" r="4" fill="#EFEEEE"/>
<circle cx="44" cy="52" r="4" fill="#EFEEEE"/>
<circle cx="60" cy="52" r="4" fill="#EFEEEE"/>
<circle cx="76" cy="52" r="4" fill="#EFEEEE"/>
<circle cx="92" cy="52" r="4" fill="#EFEEEE"/>
<circle cx="108" cy="52" r="4" fill="#EFEEEE"/>
<circle cx="124" cy="52" r="4" fill="#EFEEEE"/>
<circle cx="140" cy="52" r="4" fill="#EFEEEE"/>
<circle cx="156" cy="52" r="4" fill="#EFEEEE"/>
<circle cx="172" cy="52" r="4" fill="#EFEEEE"/>
<circle cx="188" cy="52" r="4" fill="#EFEEEE"/>
<circle cx="28" cy="68" r="4" fill="#EFEEEE"/>
<circle cx="44" cy="68" r="4" fill="#EFEEEE"/>
<circle cx="60" cy="68" r="4" fill="#EFEEEE"/>
<circle cx="76" cy="68" r="4" fill="#EFEEEE"/>
<circle cx="92" cy="68" r="4" fill="#EFEEEE"/>
<circle cx="108" cy="68" r="4" fill="#EFEEEE"/>
<circle cx="124" cy="68" r="4" fill="#EFEEEE"/>
<circle cx="140" cy="68" r="4" fill="#EFEEEE"/>
<circle cx="156" cy="68" r="4" fill="#EFEEEE"/>
<circle cx="172" cy="68" r="4" fill="#EFEEEE"/>
<circle cx="188" cy="68" r="4" fill="#EFEEEE"/>
<circle cx="28" cy="84" r="4" fill="#EFEEEE"/>
<circle cx="44" cy="84" r="4" fill="#EFEEEE"/>
<circle cx="60" cy="84" r="4" fill="#EFEEEE"/>
<circle cx="76" cy="84" r="4" fill="#EFEEEE"/>
<circle cx="92" cy="84" r="4" fill="#EFEEEE"/>
<circle cx="108" cy="84" r="4" fill="#EFEEEE"/>
<circle cx="124" cy="84" r="4" fill="#EFEEEE"/>
<circle cx="140" cy="84" r="4" fill="#EFEEEE"/>
<circle cx="156" cy="84" r="4" fill="#EFEEEE"/>
<circle cx="172" cy="84" r="4" fill="#EFEEEE"/>
<circle cx="188" cy="84" r="4" fill="#EFEEEE"/>
<circle cx="28" cy="100" r="4" fill="#EFEEEE"/>
<circle cx="44" cy="100" r="4" fill="#EFEEEE"/>
<circle cx="60" cy="100" r="4" fill="#EFEEEE"/>
<circle cx="76" cy="100" r="4" fill="#EFEEEE"/>
<circle cx="92" cy="100" r="4" fill="#EFEEEE"/>
<circle cx="108" cy="100" r="4" fill="#EFEEEE"/>
<circle cx="124" cy="100" r="4" fill="#EFEEEE"/>
<circle cx="140" cy="100" r="4" fill="#EFEEEE"/>
<circle cx="156" cy="100" r="4" fill="#EFEEEE"/>
<circle cx="172" cy="100" r="4" fill="#EFEEEE"/>
<circle cx="188" cy="100" r="4" fill="#EFEEEE"/>
<circle cx="28" cy="116" r="4" fill="#EFEEEE"/>
<circle cx="44" cy="116" r="4" fill="#EFEEEE"/>
<circle cx="60" cy="116" r="4" fill="#EFEEEE"/>
<circle cx="76" cy="116" r="4" fill="#EFEEEE"/>
<circle cx="92" cy="116" r="4" fill="#EFEEEE"/>
<circle cx="108" cy="116" r="4" fill="#EFEEEE"/>
<circle cx="124" cy="116" r="4" fill="#EFEEEE"/>
<circle cx="140" cy="116" r="4" fill="#EFEEEE"/>
<circle cx="156" cy="116" r="4" fill="#EFEEEE"/>
<circle cx="172" cy="116" r="4" fill="#EFEEEE"/>
<circle cx="188" cy="116" r="4" fill="#EFEEEE"/>
<circle cx="28" cy="132" r="4" fill="#EFEEEE"/>
<circle cx="44" cy="132" r="4" fill="#EFEEEE"/>
<circle cx="60" cy="132" r="4" fill="#EFEEEE"/>
<circle cx="76" cy="132" r="4" fill="#EFEEEE"/>
<circle cx="92" cy="132" r="4" fill="#EFEEEE"/>
<circle cx="108" cy="132" r="4" fill="#EFEEEE"/>
<circle cx="124" cy="132" r="4" fill="#EFEEEE"/>
<circle cx="140" cy="132" r="4" fill="#EFEEEE"/>
<circle cx="156" cy="132" r="4" fill="#EFEEEE"/>
<circle cx="172" cy="132" r="4" fill="#EFEEEE"/>
<circle cx="188" cy="132" r="4" fill="#EFEEEE"/>
<circle cx="28" cy="148" r="4" fill="#EFEEEE"/>
<circle cx="44" cy="148" r="4" fill="#EFEEEE"/>
<circle cx="60" cy="148" r="4" fill="#EFEEEE"/>
<circle cx="76" cy="148" r="4" fill="#EFEEEE"/>
<circle cx="92" cy="148" r="4" fill="#EFEEEE"/>
<circle cx="108" cy="148" r="4" fill="#EFEEEE"/>
<circle cx="124" cy="148" r="4" fill="#EFEEEE"/>
<circle cx="140" cy="148" r="4" fill="#EFEEEE"/>
<circle cx="156" cy="148" r="4" fill="#EFEEEE"/>
<circle cx="172" cy="148" r="4" fill="#EFEEEE"/>
<circle cx="188" cy="148" r="4" fill="#EFEEEE"/>
<circle cx="28" cy="164" r="4" fill="#EFEEEE"/>
<circle cx="44" cy="164" r="4" fill="#EFEEEE"/>
<circle cx="60" cy="164" r="4" fill="#EFEEEE"/>
<circle cx="76" cy="164" r="4" fill="#EFEEEE"/>
<circle cx="92" cy="164" r="4" fill="#EFEEEE"/>
<circle cx="108" cy="164" r="4" fill="#EFEEEE"/>
<circle cx="124" cy="164" r="4" fill="#EFEEEE"/>
<circle cx="140" cy="164" r="4" fill="#EFEEEE"/>
<circle cx="156" cy="164" r="4" fill="#EFEEEE"/>
<circle cx="172" cy="164" r="4" fill="#EFEEEE"/>
<circle cx="188" cy="164" r="4" fill="#EFEEEE"/>
<circle cx="28" cy="180" r="4" fill="#EFEEEE"/>
<circle cx="44" cy="180" r="4" fill="#EFEEEE"/>
<circle cx="60" cy="180" r="4" fill="#EFEEEE"/>
<circle cx="76" cy="180" r="4" fill="#EFEEEE"/>
<circle cx="92" cy="180" r="4" fill="#EFEEEE"/>
<circle cx="108" cy="180" r="4" fill="#EFEEEE"/>
<circle cx="124" cy="180" r="4" fill="#EFEEEE"/>
<circle cx="140" cy="180" r="4" fill="#EFEEEE"/>
<circle cx="156" cy="180" r="4" fill="#EFEEEE"/>
<circle cx="172" cy="180" r="4" fill="#EFEEEE"/>
<circle cx="188" cy="180" r="4" fill="#EFEEEE"/>
<circle cx="28" cy="196" r="4" fill="#EFEEEE"/>
<circle cx="44" cy="196" r="4" fill="#EFEEEE"/>
<circle cx="60" cy="196" r="4" fill="#EFEEEE"/>
<circle cx="76" cy="196" r="4" fill="#EFEEEE"/>
<circle cx="92" cy="196" r="4" fill="#EFEEEE"/>
<circle cx="108" cy="196" r="4" fill="#EFEEEE"/>
<circle cx="124" cy="196" r="4" fill="#EFEEEE"/>
<circle cx="140" cy="196" r="4" fill="#EFEEEE"/>
<circle cx="156" cy="196" r="4" fill="#EFEEEE"/>
<circle cx="172" cy="196" r="4" fill="#EFEEEE"/>
<circle cx="188" cy="196" r="4" fill="#EFEEEE"/>
<circle cx="28" cy="212" r="4" fill="#EFEEEE"/>
<circle cx="44" cy="212" r="4" fill="#EFEEEE"/>
<circle cx="60" cy="212" r="4" fill="#EFEEEE"/>
<circle cx="76" cy="212" r="4" fill="#EFEEEE"/>
<circle cx="92" cy="212" r="4" fill="#EFEEEE"/>
<circle cx="108" cy="212" r="4" fill="#EFEEEE"/>
<circle cx="124" cy="212" r="4" fill="#EFEEEE"/>
<circle cx="140" cy="212" r="4" fill="#EFEEEE"/>
<circle cx="156" cy="212" r="4" fill="#EFEEEE"/>
<circle cx="172" cy="212" r="4" fill="#EFEEEE"/>
<circle cx="188" cy="212" r="4" fill="#EFEEEE"/>
<circle cx="28" cy="228" r="4" fill="#EFEEEE"/>
<circle cx="44" cy="228" r="4" fill="#EFEEEE"/>
<circle cx="60" cy="228" r="4" fill="#EFEEEE"/>
<circle cx="76" cy="228" r="4" fill="#EFEEEE"/>
<circle cx="92" cy="228" r="4" fill="#EFEEEE"/>
<circle cx="108" cy="228" r="4" fill="#EFEEEE"/>
<circle cx="124" cy="228" r="4" fill="#EFEEEE"/>
<circle cx="140" cy="228" r="4" fill="#EFEEEE"/>
<circle cx="156" cy="228" r="4" fill="#EFEEEE"/>
<circle cx="172" cy="228" r="4" fill="#EFEEEE"/>
<circle cx="188" cy="228" r="4" fill="#EFEEEE"/>
<circle cx="24" cy="228" r="22" stroke="#0693A5" stroke-opacity="0.2" stroke-width="4"/>
</svg>
